<?xml version="1.0" encoding="UTF-8"?>
<svg width="106px" height="40px" viewBox="0 0 106 40" version="1.1" xmlns="http://www.w3.org/2000/svg" xmlns:xlink="http://www.w3.org/1999/xlink">
    <title>boa</title>
    <defs>
        <polygon id="path-1" points="7.40459246e-16 5.00310302e-16 32.4249307 5.00310302e-16 32.4249307 13.3153366 7.40459246e-16 13.3153366"></polygon>
        <polygon id="path-3" points="7.40459246e-16 5.00310302e-16 32.4249307 5.00310302e-16 32.4249307 13.3153366 7.40459246e-16 13.3153366"></polygon>
    </defs>
    <g id="Welcome" stroke="none" stroke-width="1" fill="none" fill-rule="evenodd">
        <g id="Desktop-HD" transform="translate(-647.000000, -543.000000)">
            <g id="boa" transform="translate(647.000000, 543.000000)">
                <path d="M36.8500517,40 L3.15012135,40 C1.4103213,40 0,38.5896787 0,36.8498786 L0,3.15012135 C0,1.41032131 1.4103213,8.19708398e-14 3.15012135,8.19708398e-14 L36.8500517,8.19708398e-14 C38.5898517,8.19708398e-14 40,1.41032131 40,3.15012135 L40,36.8498786 C40,38.5896787 38.5898517,40 36.8500517,40" id="Fill-1" fill="#1F2B2D" fill-rule="nonzero"></path>
                <polyline id="Fill-2" fill="#00CBFF" fill-rule="nonzero" points="10.0831917 21.7215437 20.0000865 31.6386117 29.9169814 21.7215437 23.3191004 15.1238357 26.5981407 11.8447955 23.2791268 8.52578164 16.6812457 15.1238357 23.2791268 21.7215437 20.0000865 25.000584 13.4022054 18.402703 10.0831917 21.7215437"></polyline>
                <path d="M64.5143261,20.1224297 C64.5143261,17.5523571 62.6549515,15.747838 60.3036084,15.747838 C58.2255043,15.747838 55.9835261,17.3609687 55.9835261,20.1224297 C55.9835261,22.8567226 58.034289,24.5792181 60.3036084,24.5792181 C62.6549515,24.5792181 64.5143261,22.6653343 64.5143261,20.1224297 Z M66.9203515,20.1497709 C66.9203515,24.1691001 64.0220114,26.8211964 60.522338,26.8211964 C58.6904777,26.8211964 56.8312762,26.0009604 55.9835261,24.5245357 L55.9835261,26.5479574 L53.6048419,26.5479574 L53.6048419,6.80692009 L55.9835261,6.80692009 L55.9835261,15.7751792 C56.8312762,14.2712403 58.6356223,13.5058598 60.5496792,13.5058598 C64.0493526,13.5058598 66.9203515,16.1032736 66.9203515,20.1497709 L66.9203515,20.1497709 Z" id="Fill-3" fill="#EEEEEE" fill-rule="nonzero"></path>
                <g id="Group-7" transform="translate(72.606802, 13.505860)">
                    <g id="Fill-4-Clipped">
                        <mask id="mask-2" fill="white">
                            <use xlink:href="#path-1"></use>
                        </mask>
                        <g id="path-1"></g>
                        <path d="M10.9913347,6.61656998 C10.9913347,3.99181495 9.02276847,2.24197826 6.67142542,2.24197826 C4.34742357,2.24197826 2.40602545,3.99181495 2.40602545,6.61656998 C2.40602545,9.26883924 4.34742357,11.0733583 6.67142542,11.0733583 C9.02276847,11.0733583 10.9913347,9.26883924 10.9913347,6.61656998 Z M7.40459246e-16,6.61656998 C7.40459246e-16,2.57007264 3.03504605,5.00310302e-16 6.67142542,5.00310302e-16 C10.3078048,5.00310302e-16 13.370192,2.57007264 13.370192,6.61656998 C13.370192,10.6632404 10.3078048,13.3153366 6.67142542,13.3153366 C3.03504605,13.3153366 7.40459246e-16,10.6632404 7.40459246e-16,6.61656998 L7.40459246e-16,6.61656998 Z" id="Fill-4" fill="#EEEEEE" fill-rule="nonzero" mask="url(#mask-2)"></path>
                    </g>
                    <g id="Fill-6-Clipped">
                        <mask id="mask-4" fill="white">
                            <use xlink:href="#path-3"></use>
                        </mask>
                        <g id="path-1"></g>
                        <path d="M30.0479769,6.61656998 C30.0479769,3.85510895 27.8058256,2.24197826 25.7005533,2.24197826 C23.3765515,2.24197826 21.5171769,4.04649734 21.5171769,6.61656998 C21.5171769,9.15947445 23.3765515,11.0733583 25.7005533,11.0733583 C27.997387,11.0733583 30.0479769,9.35086283 30.0479769,6.61656998 Z M32.4266611,0.273411983 L32.4266611,13.0420976 L30.0479769,13.0420976 L30.0479769,11.0186759 C29.2003997,12.4951007 27.3411983,13.3153366 25.5091649,13.3153366 C22.0093185,13.3153366 19.1111515,10.6632404 19.1111515,6.64391117 C19.1111515,2.59741383 21.9821503,5.00310302e-16 25.4819968,5.00310302e-16 C27.3957076,5.00310302e-16 29.2003997,0.765380505 30.0479769,2.26931945 L30.0479769,0.273411983 L32.4266611,0.273411983 L32.4266611,0.273411983 Z" id="Fill-6" fill="#EEEEEE" fill-rule="nonzero" mask="url(#mask-4)"></path>
                    </g>
                </g>
            </g>
        </g>
    </g>
</svg>