<?xml version="1.0" standalone="no"?>
<!DOCTYPE svg PUBLIC "-//W3C//DTD SVG 20010904//EN"
 "http://www.w3.org/TR/2001/REC-SVG-20010904/DTD/svg10.dtd">
<svg version="1.0" xmlns="http://www.w3.org/2000/svg"
 width="640.000000pt" height="1280.000000pt" viewBox="0 0 640.000000 1280.000000"
 preserveAspectRatio="xMidYMid meet">
<g transform="translate(0.000000,1280.000000) scale(0.100000,-0.100000)"
fill="#000000" stroke="none">
<path d="M1525 12794 c-16 -2 -154 -8 -304 -14 l-275 -10 -37 -36 c-38 -37
-59 -88 -59 -146 0 -20 -7 -41 -15 -48 -24 -20 -45 5 -45 56 0 67 -7 70 -196
78 -139 6 -170 5 -182 -7 -12 -13 -12 -37 3 -186 14 -148 15 -208 6 -434 -6
-144 -18 -435 -26 -647 -8 -212 -22 -558 -30 -770 -8 -212 -24 -619 -35 -905
-11 -286 -24 -632 -30 -770 -6 -137 -19 -484 -30 -770 -11 -286 -24 -632 -30
-770 -6 -137 -19 -484 -30 -770 -11 -286 -27 -691 -35 -900 -8 -209 -22 -553
-30 -765 -36 -936 -46 -1183 -60 -1542 -41 -1040 -55 -1413 -55 -1430 0 -10
64 -88 143 -173 116 -126 147 -155 169 -155 35 0 35 2 43 215 9 291 44 1304
65 1895 11 311 33 959 50 1440 17 485 35 879 40 884 14 14 458 52 468 41 5 -6
68 -635 141 -1400 72 -765 194 -2054 271 -2865 77 -811 142 -1484 145 -1495 2
-11 90 -105 195 -209 l191 -190 20 21 21 21 -51 533 c-47 489 -93 976 -361
3774 -50 517 -101 1048 -113 1180 -13 132 -22 245 -20 252 6 14 37 18 238 33
83 6 637 46 1231 90 1113 82 1160 85 1167 73 2 -5 -2 -75 -9 -158 -8 -82 -27
-305 -44 -495 -17 -190 -44 -496 -60 -680 -79 -889 -189 -2159 -191 -2190 0
-19 -1 -42 0 -52 1 -9 60 -58 138 -112 125 -88 173 -110 187 -88 3 5 48 506
101 1113 53 607 127 1459 164 1893 55 626 72 792 84 800 21 16 945 82 958 69
11 -11 14 -38 129 -1223 44 -454 87 -892 95 -975 22 -223 119 -1225 220 -2265
14 -140 30 -304 36 -365 5 -60 12 -119 14 -130 6 -29 400 -395 425 -395 41 0
45 -73 -55 915 -30 297 -86 855 -125 1240 -78 774 -155 1541 -320 3168 -27
270 -74 737 -105 1037 -139 1378 -169 1677 -215 2138 -76 751 -145 1431 -200
1975 -27 270 -72 719 -100 997 -28 277 -56 510 -62 517 -13 16 -303 18 -344 3
l-27 -11 7 -83 c8 -95 7 -96 -69 -96 -46 0 -75 19 -75 48 -1 28 -39 105 -68
135 -54 58 -48 57 -469 57 -213 1 -689 8 -1058 16 -666 16 -1463 25 -1520 18z
m-472 -144 c17 -33 27 -67 25 -85 l-3 -30 -89 -3 c-49 -2 -93 1 -99 7 -13 13
39 178 61 190 28 16 74 -18 105 -79z m-253 -4231 c66 -695 133 -1397 149
-1559 24 -245 26 -297 15 -306 -18 -14 -395 -27 -408 -14 -10 10 -6 152 64
2130 5 151 14 430 20 620 12 366 16 418 31 403 5 -5 63 -578 129 -1274z"/>
</g>
</svg>
