<?xml version="1.0" encoding="UTF-8"?>
<svg width="158px" height="40px" viewBox="0 0 158 40" version="1.1" xmlns="http://www.w3.org/2000/svg" xmlns:xlink="http://www.w3.org/1999/xlink">
    <title>neonjs</title>
    <g id="Welcome" stroke="none" stroke-width="1" fill="none" fill-rule="evenodd">
        <g id="Desktop-HD" transform="translate(-855.000000, -543.000000)" fill-rule="nonzero">
            <g id="neonjs" transform="translate(855.000000, 543.000000)">
                <path d="M36.8500517,40 L3.15012134,40 C1.4103213,40 0,38.5896787 0,36.8498787 L0,3.15012135 C0,1.4103213 1.4103213,-6.55766759e-13 3.15012134,-6.55766759e-13 L36.8500517,-6.55766759e-13 C38.5898517,-6.55766759e-13 40,1.4103213 40,3.15012135 L40,36.8498787 C40,38.5896787 38.5898517,40 36.8500517,40" id="Fill-1" fill="#1F2B2D"></path>
                <polyline id="Fill-2" fill="#A071EE" points="23.4360791 19.9860698 20.169152 23.2741085 13.5795772 16.6648064 10.2430858 19.9860698 20.1608458 29.9038299 30.0953914 19.9860698 26.7720514 16.6712091"></polyline>
                <polyline id="Fill-3" fill="#A071EE" points="16.8542913 13.3933801 20.1731321 16.7122209 23.4921459 13.3933801 20.1731321 10.0743663 16.8542913 13.3933801"></polyline>
                <path d="M65.3245253,19.1654878 L65.3245253,26.5479574 L62.945841,26.5479574 L62.945841,19.3023668 C62.945841,17.1695803 61.6334635,15.8572028 59.8561125,15.8572028 C58.0789347,15.8572028 55.9461482,16.8688271 55.9461482,19.6304612 L55.9461482,26.5479574 L53.5674639,26.5479574 L53.5674639,13.7792717 L55.9461482,13.7792717 L55.9461482,15.7204968 C56.7117017,14.1620485 58.7898059,13.5058598 60.1842069,13.5058598 C63.355959,13.5058598 65.3518665,15.5837908 65.3245253,19.1654878" id="Fill-4" fill="#EEEEEE"></path>
                <path d="M82.2212124,19.1381466 C81.9204592,16.9508507 80.3620116,15.747838 78.2565662,15.747838 C76.0966115,15.747838 74.5655044,16.8414859 74.1827276,19.1381466 L82.2212124,19.1381466 Z M84.5453873,21.1889095 L74.1553864,21.1889095 C74.510822,23.458229 76.1512939,24.579218 78.3387629,24.579218 C79.8972112,24.579218 81.346294,23.9230293 82.0571652,22.637993 L84.1352694,23.458229 C83.0141072,25.672866 80.7174465,26.8213694 78.2565662,26.8213694 C74.6200137,26.8213694 71.6945053,24.1691001 71.6945053,20.1224297 C71.6945053,16.0759324 74.6200137,13.5058598 78.2565662,13.5058598 C81.893118,13.5058598 84.5998967,16.0759324 84.5998967,20.1224297 C84.5998967,20.4778653 84.5725555,20.8334739 84.5453873,21.1889095 L84.5453873,21.1889095 Z" id="Fill-5" fill="#EEEEEE"></path>
                <path d="M101.223346,20.1224297 C101.223346,17.4976747 99.2547793,15.747838 96.9032631,15.747838 C94.5792612,15.747838 92.6380361,17.4976747 92.6380361,20.1224297 C92.6380361,22.774699 94.5792612,24.579218 96.9032631,24.579218 C99.2547793,24.579218 101.223346,22.774699 101.223346,20.1224297 Z M90.2318376,20.1224297 C90.2318376,16.0759324 93.2668837,13.5058598 96.9032631,13.5058598 C100.539816,13.5058598 103.602203,16.0759324 103.602203,20.1224297 C103.602203,24.1691001 100.539816,26.8213694 96.9032631,26.8213694 C93.2668837,26.8213694 90.2318376,24.1691001 90.2318376,20.1224297 L90.2318376,20.1224297 Z" id="Fill-6" fill="#EEEEEE"></path>
                <path d="M121.947628,19.1654878 L121.947628,26.5479574 L119.568943,26.5479574 L119.568943,19.3023668 C119.568943,17.1695803 118.256566,15.8572028 116.479388,15.8572028 C114.702037,15.8572028 112.569424,16.8688271 112.569424,19.6304612 L112.569424,26.5479574 L110.19074,26.5479574 L110.19074,13.7792717 L112.569424,13.7792717 L112.569424,15.7204968 C113.334977,14.1620485 115.413081,13.5058598 116.807309,13.5058598 C119.979234,13.5058598 121.975142,15.5837908 121.947628,19.1654878" id="Fill-7" fill="#EEEEEE"></path>
                <path d="M128.700384,25.1808975 C128.700384,24.1964413 129.493279,23.4855702 130.42288,23.4855702 C131.379822,23.4855702 132.200231,24.1964413 132.200231,25.1808975 C132.200231,26.1378394 131.379822,26.8213694 130.42288,26.8213694 C129.493279,26.8213694 128.700384,26.1378394 128.700384,25.1808975" id="Fill-8" fill="#EEEEEE"></path>
                <path d="M138.871137,9.07641258 C138.871137,8.17397997 139.636691,7.49045007 140.538951,7.49045007 C141.468551,7.49045007 142.234278,8.17397997 142.234278,9.07641258 C142.234278,9.97867214 141.468551,10.6622021 140.538951,10.6622021 C139.636691,10.6622021 138.871137,9.97867214 138.871137,9.07641258 Z M135.535338,30.5124311 L136.984595,30.5124311 C139.089867,30.5124311 139.39062,28.7625944 139.363279,27.2588286 L139.363279,13.7792717 L141.741963,13.7792717 L141.741963,27.2861697 C141.741963,30.4579218 140.621147,32.7545825 137.17581,32.7545825 L135.535338,32.7545825 L135.535338,30.5124311 L135.535338,30.5124311 Z" id="Fill-9" fill="#EEEEEE"></path>
                <path d="M148.139457,22.7473578 L150.354267,22.7473578 C150.381435,23.8410058 151.338377,24.7432652 152.896999,24.7432652 C154.510129,24.7432652 155.467244,24.0050529 155.467244,22.9660874 C155.467244,22.0091454 154.728859,21.5170039 153.717235,21.2982743 L151.967398,20.8881563 C149.834611,20.3139912 148.604257,19.2748526 148.604257,17.2242627 C148.604257,15.1189904 150.408777,13.5058598 152.979022,13.5058598 C155.138977,13.5058598 157.380955,14.65419 157.380955,17.2242627 L155.084295,17.2242627 C155.056953,16.2399796 154.045329,15.5837908 153.033705,15.5837908 C151.803351,15.5837908 150.983115,16.3220032 150.983115,17.3062863 C150.983115,18.1812046 151.803351,18.646005 152.623587,18.8373934 L154.510129,19.3023668 C157.162399,19.9585556 157.845929,21.5443451 157.845929,22.9934286 C157.845929,25.3721128 155.549095,26.8213694 152.896999,26.8213694 C150.600338,26.8213694 148.248822,25.3721128 148.139457,22.7473578" id="Fill-10" fill="#EEEEEE"></path>
            </g>
        </g>
    </g>
</svg>