<?xml version="1.0" encoding="UTF-8"?>
<svg width="116px" height="39px" viewBox="0 0 116 39" version="1.1" xmlns="http://www.w3.org/2000/svg" xmlns:xlink="http://www.w3.org/1999/xlink">
    <title>dora</title>
    <g id="Welcome" stroke="none" stroke-width="1" fill="none" fill-rule="evenodd">
        <g id="Desktop-HD" transform="translate(-428.000000, -544.000000)" fill-rule="nonzero">
            <g id="dora" transform="translate(428.000000, 544.000000)">
                <path d="M35.9288004,39 L3.07136831,39 C1.37506327,39 0,37.6249367 0,35.9286316 L0,3.07136831 C0,1.37506327 1.37506327,0 3.07136831,0 L35.9288004,0 C37.6251054,0 39,1.37506327 39,3.07136831 L39,35.9286316 C39,37.6249367 37.6251054,39 35.9288004,39" id="Fill-1" fill="#1F2B2D"></path>
                <polyline id="Fill-2" fill="#D355E7" points="16.7598322 7 7 16.7600032 10.2401678 20 20 10.2401678 16.7598322 7"></polyline>
                <polyline id="Fill-3" fill="#D355E7" points="25.8524632 10 29 13.1475368 13.1475368 29 10 25.8524632 25.8524632 10"></polyline>
                <polyline id="Fill-4" fill="#D355E7" points="28.730395 20 32 23.2697326 22.2697755 33 19 29.7302674 28.730395 20"></polyline>
                <path d="M61.6776784,20.3058966 C61.6776784,17.5464292 59.4886547,15.9344631 57.4332666,15.9344631 C55.1641628,15.9344631 53.3490149,17.7376794 53.3490149,20.3058966 C53.3490149,22.8469653 55.1641628,24.7594674 57.4332666,24.7594674 C59.6755081,24.7594674 61.6776784,23.0382154 61.6776784,20.3058966 Z M64,7 L64,26.7267854 L61.6776784,26.7267854 L61.6776784,24.7048245 C60.8501845,26.1801833 59.0348677,27 57.2462442,27 C53.8294952,27 51,24.3496455 51,20.3332181 C51,16.289642 53.8029708,13.6941034 57.2197198,13.6941034 C59.0882543,13.6941034 60.8501845,14.4589313 61.6776784,15.9617846 L61.6776784,7 L64,7 L64,7 Z" id="Fill-5" fill="#EEEEEE"></path>
                <path d="M81.6870383,20.459791 C81.6870383,17.8972293 79.773002,16.1888548 77.486624,16.1888548 C75.226998,16.1888548 73.339377,17.8972293 73.339377,20.459791 C73.339377,23.0492151 75.226998,24.8109763 77.486624,24.8109763 C79.773002,24.8109763 81.6870383,23.0492151 81.6870383,20.459791 Z M71,20.459791 C71,16.509175 73.9509738,14 77.486624,14 C81.0222735,14 84,16.509175 84,20.459791 C84,24.4105759 81.0222735,27 77.486624,27 C73.9509738,27 71,24.4105759 71,20.459791 L71,20.459791 Z" id="Fill-6" fill="#EEEEEE"></path>
                <path d="M98,13.4903806 L97.626506,15.7252946 C96.9600217,15.3982592 96.2933692,15.2892474 95.8132108,15.2892474 C93.3332631,15.2892474 92.3466173,17.9872891 92.3466173,21.3395738 L92.3466173,26 L90,26 L90,13.2725294 L92.3466173,13.2725294 L92.3466173,16.1613417 C92.9866039,13.9266002 94.1867473,13 95.8400456,13 C96.719858,13 97.626506,13.245104 98,13.4903806" id="Fill-7" fill="#EEEEEE"></path>
                <path d="M113.677678,20.459791 C113.677678,17.7637625 111.488654,16.1888548 109.433266,16.1888548 C107.164162,16.1888548 105.349015,17.950616 105.349015,20.459791 C105.349015,22.9424417 107.164162,24.8109763 109.433266,24.8109763 C111.675677,24.8109763 113.677678,23.1292951 113.677678,20.459791 Z M116,14.2669335 L116,26.7330665 L113.677678,26.7330665 L113.677678,24.7575896 C112.850185,26.1990305 111.035037,27 109.246413,27 C105.829495,27 103,24.4105759 103,20.4864844 C103,16.5358683 105.802971,14 109.21972,14 C111.088255,14 112.850185,14.7472449 113.677678,16.2155482 L113.677678,14.2669335 L116,14.2669335 L116,14.2669335 Z" id="Fill-8" fill="#EEEEEE"></path>
            </g>
        </g>
    </g>
</svg>